# xmcd
#
# Track frame offsets: 
#        150
#        13258
#        24697
#        39885
#        54663
#        69531
#        81690
#        96971
#        107410
#        123165
#        139093
#        151756
#        177003
#        190446
#        202529
#        219951
#        232470
#
# Disc length: 3279 seconds
#
# Revision: 0
# Processed by: cddbd v1.5.2PL0 Copyright (c) Steve Scherf et al.
# Submitted via: ExactAudioCopyFreeDBPlugin 1.0
#
DISCID=e60ccd11
DTITLE=Big Bad Bears - Into The Blues
DYEAR=2006
DGENRE=Blues
TTITLE0=Hard Work
TTITLE1=I Know Your Wig Is Gone
TTITLE2=Into The Blues
TTITLE3=It's Enough For The Blues
TTITLE4=You Got Me
TTITLE5=Treat Me Right
TTITLE6=Hard Times
TTITLE7=Pog Mo Thoin
TTITLE8=Too Many Cooks
TTITLE9=Seventh Son
TTITLE10=Good Time Charlie, Part 1
TTITLE11=These Troubles
TTITLE12=I Want A Little Girl
TTITLE13=She Only Wants To Be
TTITLE14=Kidney Stew Blues
TTITLE15=Moonshine Boogie
TTITLE16=Cajun Moon
EXTD=
EXTT0=
EXTT1=
EXTT2=
EXTT3=
EXTT4=
EXTT5=
EXTT6=
EXTT7=
EXTT8=
EXTT9=
EXTT10=
EXTT11=
EXTT12=
EXTT13=
EXTT14=
EXTT15=
EXTT16=
PLAYORDER=
